ply
format ascii 1.0
comment Created by Blender3D 249 - www.blender.org, source file: 
element vertex 34
property float x
property float y
property float z
property float nx
property float ny
property float nz
element face 64
property list uchar uint vertex_indices
end_header
0.831470 -1.000000 -0.555570 0.705893 0.471664 -0.528367 
0.707107 -1.000000 -0.707107 0.600330 0.600330 -0.528367 
0.000000 1.000000 -0.000000 0.000000 0.000000 1.000000 
0.923880 -1.000000 -0.382683 0.784356 0.324870 -0.528367 
0.980785 -1.000000 -0.195090 0.832667 0.165624 -0.528367 
1.000000 -1.000000 -0.000000 0.848994 0.000000 -0.528367 
0.980785 -1.000000 0.195090 0.832667 -0.165624 -0.528367 
0.923880 -1.000000 0.382683 0.784356 -0.324870 -0.528367 
0.831470 -1.000000 0.555570 0.705893 -0.471664 -0.528367 
0.707107 -1.000000 0.707107 0.600330 -0.600330 -0.528367 
0.555570 -1.000000 0.831470 0.471664 -0.705893 -0.528367 
0.382683 -1.000000 0.923880 0.324870 -0.784356 -0.528367 
0.195090 -1.000000 0.980785 0.165624 -0.832667 -0.528367 
-0.000000 -1.000000 1.000000 0.000000 -0.848994 -0.528367 
-0.195091 -1.000000 0.980785 -0.165624 -0.832667 -0.528367 
-0.382684 -1.000000 0.923879 -0.324870 -0.784356 -0.528367 
-0.555571 -1.000000 0.831469 -0.471664 -0.705893 -0.528367 
-0.707107 -1.000000 0.707106 -0.600330 -0.600330 -0.528367 
-0.831470 -1.000000 0.555570 -0.705893 -0.471664 -0.528367 
-0.923880 -1.000000 0.382683 -0.784356 -0.324870 -0.528367 
-0.980785 -1.000000 0.195090 -0.832667 -0.165624 -0.528367 
-1.000000 -1.000000 -0.000001 -0.848994 0.000000 -0.528367 
-0.980785 -1.000000 -0.195091 -0.832667 0.165624 -0.528367 
-0.923879 -1.000000 -0.382684 -0.784356 0.324900 -0.528367 
-0.831469 -1.000000 -0.555571 -0.705893 0.471664 -0.528367 
-0.707106 -1.000000 -0.707108 -0.600330 0.600330 -0.528367 
-0.555569 -1.000000 -0.831470 -0.471664 0.705893 -0.528367 
-0.382682 -1.000000 -0.923880 -0.324870 0.784356 -0.528367 
-0.195089 -1.000000 -0.980785 -0.165624 0.832667 -0.528367 
0.000002 -1.000000 -1.000000 0.000000 0.848994 -0.528367 
0.195092 -1.000000 -0.980785 0.165624 0.832667 -0.528367 
0.382685 -1.000000 -0.923879 0.324900 0.784356 -0.528367 
0.555572 -1.000000 -0.831469 0.471664 0.705893 -0.528367 
0.000000 -1.000000 0.000000 0.000000 0.000000 -1.000000 
3 0 1 2 
3 2 3 0 
3 2 4 3 
3 2 5 4 
3 2 6 5 
3 2 7 6 
3 2 8 7 
3 2 9 8 
3 2 10 9 
3 2 11 10 
3 2 12 11 
3 2 13 12 
3 2 14 13 
3 2 15 14 
3 2 16 15 
3 2 17 16 
3 2 18 17 
3 2 19 18 
3 2 20 19 
3 2 21 20 
3 2 22 21 
3 2 23 22 
3 2 24 23 
3 2 25 24 
3 2 26 25 
3 2 27 26 
3 2 28 27 
3 2 29 28 
3 2 30 29 
3 2 31 30 
3 2 32 31 
3 2 1 32 
3 33 1 0 
3 33 0 3 
3 33 3 4 
3 33 4 5 
3 33 5 6 
3 33 6 7 
3 33 7 8 
3 33 8 9 
3 33 9 10 
3 33 10 11 
3 33 11 12 
3 33 12 13 
3 33 13 14 
3 33 14 15 
3 33 15 16 
3 33 16 17 
3 33 17 18 
3 33 18 19 
3 33 19 20 
3 33 20 21 
3 33 21 22 
3 33 22 23 
3 33 23 24 
3 33 24 25 
3 33 25 26 
3 33 26 27 
3 33 27 28 
3 33 28 29 
3 33 29 30 
3 33 30 31 
3 33 31 32 
3 32 1 33 
